<svg id="Layer_1" data-name="Layer 1"
  xmlns="http://www.w3.org/2000/svg" viewBox="0 0 888.13 79.64">
  <defs>
    <style>.cls-1{fill:#c1b3dd;}.cls-1,.cls-2,.cls-3,.cls-4,.cls-5{fill-rule:evenodd;}.cls-2,.cls-6{fill:#592a97;}.cls-3{fill:#8785c3;}.cls-4{fill:#fff;}.cls-5{fill:#2a1a42;}.cls-7{fill:#2e1b46;}</style>
  </defs>
  <g id="logo">
    <g id="Page-1">
      <polygon id="Fill-3" class="cls-1" points="32.99 21.2 49.47 11.68 49.47 30.73 32.99 21.2"/>
      <polygon id="Fill-4" class="cls-2" points="65.98 21.2 49.47 11.68 49.47 30.73 65.98 21.2"/>
      <polygon id="Fill-5" class="cls-1" points="65.98 40.27 65.98 21.2 49.47 30.73 65.98 40.27"/>
      <polygon id="Fill-6" class="cls-1" points="65.98 40.27 65.98 21.2 49.47 30.73 65.98 40.27"/>
      <polygon id="Fill-7" class="cls-3" points="32.99 2.15 32.99 21.2 49.47 11.68 32.99 2.15 32.99 2.15"/>
      <polygon id="Fill-8" class="cls-3" points="65.98 40.27 49.47 30.73 49.47 49.76 65.98 40.27"/>
      <polygon id="Fill-9" class="cls-1" points="65.98 59.3 65.98 40.27 49.47 49.76 65.98 59.3"/>
      <polygon id="Fill-10" class="cls-3" points="49.47 68.82 49.47 49.76 32.99 59.36 49.47 68.82"/>
      <polygon id="Fill-11" class="cls-2" points="32.99 78.34 32.99 78.34 49.47 68.82 32.99 59.36 32.99 78.34"/>
      <polygon id="Fill-12" class="cls-4" points="49.47 30.73 32.99 21.2 32.99 40.27 49.47 30.73"/>
      <polygon id="Fill-13" class="cls-5" points="32.99 40.27 32.99 21.2 16.5 30.71 16.5 49.83 32.99 59.36 49.47 49.76 49.47 30.73 32.99 40.27"/>
      <polygon id="Fill-14" class="cls-3" points="32.99 21.2 16.5 11.67 16.5 30.71 32.99 21.2"/>
      <polygon id="Fill-15" class="cls-2" points="0 21.2 16.5 30.71 16.5 11.67 0 21.2"/>
      <polygon id="Fill-16" class="cls-3" points="0 40.27 16.5 49.83 16.5 30.71 0 40.27"/>
      <polygon id="Fill-17" class="cls-1" points="0 59.22 16.5 49.83 0 40.27 0 59.22"/>
      <polygon id="Fill-18" class="cls-2" points="0 59.22 16.5 68.82 16.5 68.7 16.5 49.83 0 59.22"/>
      <polygon id="Fill-19" class="cls-1" points="16.5 68.82 32.99 59.36 16.5 49.83 16.5 68.82"/>
      <path id="Fill-20" class="cls-2" d="M251.37,14.22,258,6.8h4.77L256,14.21,264,25.88h-4.8l-5.85-8.65-1.93,2.17v6.48h-4.17V0h4.16Zm-25.84,4a4.17,4.17,0,0,1-4.05,4.29h-.22c-2.35,0-3.55-1-3.55-2.55,0-1.33,1-2,3.06-2.26l4.76-.51ZM221.92,6.36c-5.16,0-7.64,2.71-7.64,6.36h4c.07-.79.56-2.42,3.46-2.42,3.29,0,3.82,2.19,3.82,3.35v.09l-5,.54c-4.07.44-7,2.31-7,5.8s2.55,6.24,7,6.24a6.76,6.76,0,0,0,5.08-2v1.6h4.17V13.33c-.11-3.2-1.89-7-7.89-7ZM129.24,18.22a4.18,4.18,0,0,1-4.05,4.29H125c-2.35,0-3.55-1-3.55-2.55,0-1.33,1-2,3.06-2.26l4.76-.51ZM125.63,6.36c-5.16,0-7.64,2.71-7.64,6.36h4c.07-.79.56-2.42,3.46-2.42,3.29,0,3.83,2.19,3.83,3.35v.09l-5,.54c-4.06.44-7,2.31-7,5.8s2.55,6.24,7,6.24a6.82,6.82,0,0,0,5.09-2v1.6h4.16V13.33C133.41,10.13,131.63,6.36,125.63,6.36ZM244.3,10.58V6.63H243c-6.31,0-7.76,4-7.76,7.69V25.88h4.16V14.79c0-2.11,1.07-4.21,3.88-4.21Zm-64,0V6.63H179c-6.32,0-7.76,4-7.76,7.69V25.88h4.16V14.79c0-2.11,1.07-4.21,3.88-4.21ZM97.36,6.8V18.17c0,2.78-1.46,4.21-3.68,4.21S90,21.05,90,18.17V6.8H85.84V18.41c0,5.88,4.25,7.91,7.76,7.91a7.35,7.35,0,0,0,5.82-2.7,7.39,7.39,0,0,0,5.83,2.7c3.51,0,7.76-2,7.76-7.91V6.8h-4.16V18.17c0,2.89-1.53,4.22-3.67,4.22s-3.67-1.33-3.67-4.22V6.8Zm100.8,19.08V14.51c0-2.88,1.52-4.21,3.66-4.21s3.67,1.33,3.67,4.21V25.88h4.17V14.27c0-5.88-4.26-7.91-7.77-7.91a7.4,7.4,0,0,0-5.82,2.7,7.4,7.4,0,0,0-5.82-2.7c-3.51,0-7.76,2-7.76,7.91V25.88h4.16V14.51c0-2.88,1.53-4.21,3.67-4.21S194,11.74,194,14.51V25.88ZM143.71,20c0,1.58.9,2.24,2.39,2.24h1.38v3.62H145c-3.41,0-5.41-2.06-5.41-4.92V10.41h-3.39V6.8h3.34V2.48h4.16V6.8h3.77v3.61h-3.77Zm10.47-6.13v.39H162V13.9a3.57,3.57,0,0,0-3.5-3.62l-.4,0C155.17,10.3,154.18,12.29,154.18,13.89Zm7.54,6h4.1c-.24,1.5-1.38,6.41-7.74,6.43-6.08,0-8-4.59-8-8.4v-3c0-4,2-8.53,8-8.53,6.5,0,8,5.17,8,8.53v2.76h-11.9v.69c0,2.31,1.11,4,3.9,4,2.28,0,3.47-1.42,3.64-2.48Z"/>
      <path class="cls-6" d="M270.27,7.8v6.09h-1.09V7.8h-2V6.74h5.14V7.83Z"/>
      <path class="cls-6" d="M278.07,6.74h1.1v7.18h-1.09v-5l-1.48,3h-.9l-1.48-3v5h-1.08V6.74h1.09l1.92,4Z"/>
      <path class="cls-7" d="M86.28,59.91h5.23c.72,3.75,3.31,5.81,7.25,5.81,3.46,0,5.67-1.68,5.67-4.27s-1.4-4-4.76-4.85l-6-1.44c-4.37-1.06-6.86-4.61-6.86-9.42,0-6.48,4.89-9.5,10.85-9.5,6.77,0,10.65,3.84,11.47,9.45H103.9c-.67-2.73-2.93-4.37-6.2-4.37-4,0-5.66,1.88-5.66,4.42s1.58,3.94,3.79,4.46l5.76,1.4c5.33,1.29,8.07,4.51,8.07,9.93s-4,9.27-11,9.27C90.94,70.81,86.81,66.15,86.28,59.91Z"/>
      <path class="cls-7" d="M121,63.13c0,1.82.34,2.35,2.31,2.35h3.79v4.85h-5.23c-4.13,0-5.91-2-5.91-5.91V50.31h-3.5V45.56H116V39.94h5v5.62h6.1v4.75H121Z"/>
      <path class="cls-7" d="M136.73,60.44c0,3.74,2.16,5.47,5.13,5.47S147,64.18,147,60.44V45.56h5V70.33h-5V68c-.72,1.44-3.17,2.83-5.76,2.83-4.27,0-9.55-3-9.55-10.27v-15h5Z"/>
      <path class="cls-7" d="M158,55.16c0-7.63,5.57-10.27,9.84-10.27,2.59,0,5,1.39,5.76,2.83v-11h5v33.6h-5V68c-.72,1.44-3.17,2.83-5.76,2.83-4.27,0-9.84-2.64-9.84-10.27Zm5,5.28c0,3.74,2.16,5.47,5,5.47,3.12,0,5.61-1.73,5.61-5.47V55.26c0-3.75-2.16-5.48-5.28-5.48S163,51.51,163,55.26Z"/>
      <path class="cls-7" d="M199.94,62.46h5.14c-.86,6.57-6.19,8.35-10.18,8.35-4.32,0-10.32-2.11-10.32-10.27V55.16c0-8.16,6-10.27,10.32-10.27S205.22,47,205.22,55.16v4.46h-15.6v.82c0,3.74,2.16,5.52,5.28,5.52C197.4,66,199.27,64.81,199.94,62.46Zm-10.32-7.35v0h10.56v0c0-3.6-2.21-5.38-5.28-5.38s-5.28,1.78-5.28,5.38Z"/>
      <path class="cls-7" d="M216,70.33h-5V45.56h5v2.18c.72-1.44,3.17-2.83,5.76-2.83,4.28,0,9.85,2.64,9.85,10.27V70.33h-5V55.26c0-3.75-2.16-5.48-5.28-5.48S216,51.51,216,55.26Z"/>
      <path class="cls-7" d="M244,63.13c0,1.82.34,2.35,2.31,2.35h3.79v4.85h-5.23c-4.13,0-5.91-2-5.91-5.91V50.31h-3.5V45.56H239V39.94h5v5.62h6.1v4.75H244Z"/>
      <path class="cls-7" d="M265.84,36.74H271v28.5H285.7v5.09H265.84Z"/>
      <path class="cls-7" d="M304.1,62.46h5.14c-.87,6.57-6.19,8.35-10.18,8.35-4.32,0-10.32-2.11-10.32-10.27V55.16c0-8.16,6-10.27,10.32-10.27S309.38,47,309.38,55.16v4.46h-15.6v.82c0,3.74,2.16,5.52,5.28,5.52C301.56,66,303.43,64.81,304.1,62.46Zm-10.32-7.35v0h10.56v0c0-3.6-2.21-5.38-5.28-5.38S293.78,51.51,293.78,55.11Z"/>
      <path class="cls-7" d="M319.51,53.24h-5.14c.87-6.58,6.19-8.35,10.18-8.35,4.32,0,10.32,2.11,10.32,10.27V70.33h-5V68c-1.58,1.92-4.13,2.83-7.39,2.83-4.52,0-8.45-2.26-8.45-7.35A7.37,7.37,0,0,1,319.4,56a47.41,47.41,0,0,1,10.42-1.44h0c-.24-3.22-2.3-4.81-5.23-4.81C322,49.74,320.18,50.89,319.51,53.24Zm10.32,7.2V59.05c-4.42.29-7.78.57-9.6,1.68A2.49,2.49,0,0,0,319,63c0,2,1.53,2.93,4.22,2.93C326.13,66,329.83,65.05,329.83,60.44Z"/>
      <path class="cls-7" d="M351.48,50c-3.12,0-5.28,1.73-5.28,5.48V70.33h-5V45.56h5V48c.72-1.44,3.16-2.83,5.76-2.83h1.92V50Z"/>
      <path class="cls-7" d="M362.76,70.33h-5V45.56h5v2.18c.72-1.44,3.16-2.83,5.76-2.83,4.27,0,9.84,2.64,9.84,10.27V70.33h-5V55.26c0-3.75-2.16-5.48-5.28-5.48s-5.28,1.73-5.28,5.48Z"/>
      <path class="cls-7" d="M389.68,41.86h-5V36.74h5Zm0,28.47h-5V45.56h5Z"/>
      <path class="cls-7" d="M401.35,70.33h-5V45.56h5v2.18c.72-1.44,3.16-2.83,5.76-2.83,4.27,0,9.84,2.64,9.84,10.27V70.33h-5V55.26c0-3.75-2.16-5.48-5.28-5.48s-5.28,1.73-5.28,5.48Z"/>
      <path class="cls-7" d="M438.07,69.27V66.54c-.72,1.44-3.17,2.83-5.76,2.83-4.28,0-9.84-2.64-9.84-10.27V55.16c0-7.63,5.56-10.27,9.84-10.27,2.59,0,5,1.39,5.76,2.83V45.56h5V69.37c0,8.16-6,10.27-10.32,10.27-4.08,0-9.56-1.87-10.23-8.83h5.09c.53,2.69,2.5,4,5.14,4C435.91,74.79,438.07,73,438.07,69.27ZM427.51,59c0,3.74,2.16,5.47,5.28,5.47s5.28-1.73,5.28-5.47V55.26c0-3.75-2.16-5.48-5.28-5.48s-5.28,1.73-5.28,5.48Z"/>
      <path class="cls-7" d="M479.87,56V70.33H469.36c-4.56,0-10.13-2.45-10.13-9.6a8,8,0,0,1,4-7.2,8,8,0,0,1-4-7.16c0-7.48,6-9.64,10.32-9.64h5.28v4.84h-5.28c-3.12,0-5.28,1.73-5.28,4.8s2,4.76,5.28,4.76h5.28V47.29h5v3.84h5.91V56Zm-5,9.5V56H469.4c-3.12,0-5.09,1.72-5.09,4.75s2,4.75,5.09,4.75Z"/>
      <path class="cls-7" d="M499.94,36.74h5.13v28.5h14.69v5.09H499.94Z"/>
      <path class="cls-7" d="M528.54,41.86h-5V36.74h5Zm0,28.47h-5V45.56h5Z"/>
      <path class="cls-7" d="M544.82,70.81c-4.32,0-10.32-2.11-10.32-10.27V55.16c0-8.16,6-10.27,10.32-10.27,4.08,0,9.65,1.87,10.27,8.93H550c-.48-2.74-2.45-4.09-5.13-4.09-3.12,0-5.28,1.78-5.28,5.53v5.18c0,3.74,2.16,5.52,5.28,5.52,2.68,0,4.7-1.34,5.18-4.08h5.09C554.47,68.94,548.9,70.81,544.82,70.81Z"/>
      <path class="cls-7" d="M575.25,62.46h5.13c-.86,6.57-6.19,8.35-10.17,8.35-4.32,0-10.32-2.11-10.32-10.27V55.16c0-8.16,6-10.27,10.32-10.27S580.53,47,580.53,55.16v4.46h-15.6v.82c0,3.74,2.16,5.52,5.28,5.52C572.7,66,574.58,64.81,575.25,62.46Zm-10.32-7.35v0h10.56v0c0-3.6-2.21-5.38-5.28-5.38S564.93,51.51,564.93,55.11Z"/>
      <path class="cls-7" d="M591.28,70.33h-5V45.56h5v2.18c.72-1.44,3.17-2.83,5.76-2.83,4.27,0,9.84,2.64,9.84,10.27V70.33h-5V55.26c0-3.75-2.16-5.48-5.28-5.48s-5.28,1.73-5.28,5.48Z"/>
      <path class="cls-7" d="M611.44,62.41h5.18c.39,2.45,2.74,3.55,5.43,3.55,2.21,0,4.08-.58,4.08-2.59,0-1.68-1.49-2.21-3.12-2.59l-4.71-1.2c-3.29-.84-6.29-2.64-6.29-7.4s3.94-7.29,9-7.29c5.33,0,9,2.4,9.51,7.92h-5.28c-.41-2.16-2.23-3.07-4.59-3.07-1.53,0-3.55.58-3.55,2.55,0,1.49,1.44,2,2.79,2.3l4.56,1.15c4.51,1.16,6.77,3.08,6.77,7.78-.05,4.9-3.84,7.3-9.22,7.3C616.29,70.81,611.73,68.07,611.44,62.41Z"/>
      <path class="cls-7" d="M641,60.44c0,3.74,2.16,5.47,5.13,5.47s5.14-1.73,5.14-5.47V45.56h5V70.33h-5V68c-.72,1.44-3.17,2.83-5.76,2.83-4.27,0-9.55-3-9.55-10.27v-15h5Z"/>
      <path class="cls-7" d="M673.26,50c-3.12,0-5.28,1.73-5.28,5.48V70.33h-5V45.56h5V48c.72-1.44,3.17-2.83,5.76-2.83h1.92V50Z"/>
      <path class="cls-7" d="M694.09,62.46h5.14c-.86,6.57-6.19,8.35-10.18,8.35-4.32,0-10.32-2.11-10.32-10.27V55.16c0-8.16,6-10.27,10.32-10.27S699.37,47,699.37,55.16v4.46h-15.6v.82c0,3.74,2.16,5.52,5.28,5.52C691.55,66,693.42,64.81,694.09,62.46Zm-10.32-7.35v0h10.56v0c0-3.6-2.2-5.38-5.28-5.38S683.77,51.51,683.77,55.11Z"/>
    </g>
  </g>
  <path class="cls-7" d="M728.86,70.48h-2.53V49.23h2.53Z"/>
  <path class="cls-7" d="M754.85,51.92c-1.09,0-1.27.29-1.27,1.3v.9H757v2.63h-3.37V67.82h-2.79V56.75h-1.94V54.12h1.94V52.5c0-2.15,1-3.27,3.27-3.27H757v2.69Z"/>
  <path class="cls-7" d="M758.46,59.43c0-4.51,3.32-5.68,5.71-5.68s5.71,1.17,5.71,5.68v3c0,4.52-3.32,5.69-5.71,5.69s-5.71-1.17-5.71-5.69Zm8.63,0a2.92,2.92,0,1,0-5.84,0v2.87a2.92,2.92,0,1,0,5.84,0Z"/>
  <path class="cls-7" d="M778.88,56.59a2.7,2.7,0,0,0-2.92,3v8.2h-2.78V54.12H776v1.33a3.77,3.77,0,0,1,3.19-1.57h1.06v2.71Z"/>
  <path class="cls-7" d="M793.49,67.82H790.7V59.48a2.79,2.79,0,1,0-5.57,0v8.34h-2.79V54.12h2.79v1.19a3.73,3.73,0,0,1,3-1.56,5,5,0,0,1,3.93,1.94,5.19,5.19,0,0,1,4.17-1.94,5.29,5.29,0,0,1,5.57,5.68v8.39h-2.79V59.48a2.79,2.79,0,1,0-5.57,0Z"/>
  <path class="cls-7" d="M813.46,63.47h2.84c-.48,3.63-3.43,4.62-5.63,4.62-2.39,0-5.71-1.17-5.71-5.69v-3c0-4.51,3.32-5.68,5.71-5.68s5.71,1.17,5.71,5.68V61.9h-8.63v.45a2.72,2.72,0,0,0,2.92,3.05A2.64,2.64,0,0,0,813.46,63.47Zm-5.71-4.07v0h5.84v0a2.72,2.72,0,0,0-2.92-3A2.69,2.69,0,0,0,807.75,59.4Z"/>
  <path class="cls-7" d="M825.25,56.59a2.7,2.7,0,0,0-2.92,3v8.2h-2.79V54.12h2.79v1.33a3.75,3.75,0,0,1,3.18-1.57h1.07v2.71Z"/>
  <path class="cls-7" d="M831.44,63.84c0,1,.18,1.3,1.27,1.3h.42v2.68h-1.22c-2.28,0-3.26-1.12-3.26-3.27V49.23h2.79Z"/>
  <path class="cls-7" d="M840.65,71c-.4,1.14-1.38,1.73-3,1.73h-1.43V70h.56c1.35,0,1.4-.24,1.86-1.38l.37-1-4.89-13.51H837l3.42,9.74,3.43-9.74h2.89Z"/>
  <path class="cls-7" d="M862.18,67.82h-2.92l-6.5-18.59h2.92l5,14.5,5-14.5h2.92Z"/>
  <path class="cls-7" d="M873.52,52.08h-2.78V49.23h2.78Zm0,15.74h-2.78V54.12h2.78Z"/>
  <path class="cls-7" d="M879.63,58.37h-2.84c.48-3.64,3.43-4.62,5.63-4.62,2.39,0,5.71,1.17,5.71,5.68v8.39h-2.79v-1.3a5.05,5.05,0,0,1-4.09,1.57c-2.49,0-4.67-1.25-4.67-4.07a4.07,4.07,0,0,1,3-4.11,25.69,25.69,0,0,1,5.76-.8v0a2.93,2.93,0,0,0-5.68-.71Zm5.71,4v-.77c-2.44.16-4.3.32-5.31.93a1.38,1.38,0,0,0-.66,1.27c0,1.12.85,1.62,2.33,1.62S885.34,64.9,885.34,62.35Z"/>
</svg>